<svg width="14" height="12" viewBox="0 0 14 12" fill="none" xmlns="http://www.w3.org/2000/svg">
<path d="M12.3333 0.666666H1.66659C0.931252 0.666666 0.333252 1.26467 0.333252 2V10C0.333252 10.7353 0.931252 11.3333 1.66659 11.3333H12.3333C13.0686 11.3333 13.6666 10.7353 13.6666 10V2C13.6666 1.26467 13.0686 0.666666 12.3333 0.666666ZM12.3333 2V2.34067L6.99992 6.48933L1.66659 2.34133V2H12.3333ZM1.66659 10V4.02933L6.59059 7.85933C6.70732 7.95103 6.85147 8.00087 6.99992 8.00087C7.14837 8.00087 7.29251 7.95103 7.40925 7.85933L12.3333 4.02933L12.3346 10H1.66659Z" fill="#435971" fill-opacity="0.6"/>
</svg>
