<svg width="29" height="42" viewBox="0 0 29 42" fill="none" xmlns="http://www.w3.org/2000/svg">
<mask id="mask0_44_844" style="mask-type:alpha" maskUnits="userSpaceOnUse" x="0" y="6" width="21" height="36">
<path d="M14.8975 6.29678L3.61609 14.0485C0.543379 16.5134 -0.484102 19.5609 0.53365 23.1911C0.677014 23.6666 1.11729 25.3702 3.31836 26.9484C4.06842 27.4862 5.70632 28.2114 8.23205 29.1239L8.1745 29.1625L2.78774 32.7704C0.411601 34.6864 0.0241688 37.103 1.62545 40.0199C3.00809 41.8182 5.58129 42.3073 7.62538 41.5141C8.9881 40.9852 12.3621 38.7365 17.7473 34.768C19.5016 32.7161 20.2217 30.4778 19.9077 28.0531C19.4255 25.0938 17.4869 22.9547 14.0919 21.6357L11.7799 20.6473L20.1369 14.6422L14.8975 6.29678Z" fill="white"/>
</mask>
<g mask="url(#mask0_44_844)">
<path d="M14.8975 6.29706L3.61609 14.0488C0.543379 16.5137 -0.484102 19.5612 0.53365 23.1914C0.677014 23.6669 1.11729 25.3705 3.31836 26.9487C4.06842 27.4865 5.70632 28.2116 8.23205 29.1242L8.1745 29.1627L2.78774 32.7706C0.411601 34.6867 0.0241688 37.1032 1.62545 40.0202C3.00809 41.8185 5.58129 42.3076 7.62538 41.5144C8.9881 40.9855 12.3621 38.7368 17.7473 34.7683C19.5016 32.7164 20.2217 30.4781 19.9077 28.0534C19.4255 25.0941 17.4869 22.955 14.0919 21.636L11.7799 20.6476L20.1369 14.6425L14.8975 6.29706Z" fill="#696CFF"/>
<path d="M5.86863 12.4758C4.32742 14.896 4.66402 16.9273 6.87845 18.5696C9.27888 19.6625 10.8903 20.3689 11.7129 20.6888L16.761 21.6995L20.137 14.6422C16.791 9.31392 15.0445 6.5321 14.8975 6.29678C14.6665 6.46436 11.6569 8.52402 5.86863 12.4758Z" fill="#696CFF"/>
<path d="M5.86863 12.4758C4.32742 14.896 4.66402 16.9273 6.87845 18.5696C9.27888 19.6625 10.8903 20.3689 11.7129 20.6888L16.761 21.6995L20.137 14.6422C16.791 9.31392 15.0445 6.5321 14.8975 6.29678C14.6665 6.46436 11.6569 8.52402 5.86863 12.4758Z" fill="white" fill-opacity="0.2"/>
<path d="M8.06905 29.1373L13.3036 31.4206C15.3065 32.9987 15.5543 34.892 14.047 37.1006C12.5396 39.3091 11.1182 40.6945 9.7828 41.2569C6.20306 42.4942 4.41319 43.1128 4.41319 43.1128C4.41319 43.1128 2.91814 42.0774 -0.0719531 40.0064C-0.677839 36.3482 -0.677839 34.4206 -0.0719531 34.2237C0.836875 33.9284 2.94526 30.8833 3.51514 30.5604C3.89506 30.3452 5.41303 29.8708 8.06905 29.1373Z" fill="#696CFF"/>
<path d="M8.06905 29.1373L13.3036 31.4206C15.3065 32.9987 15.5543 34.892 14.047 37.1006C12.5396 39.3091 11.1182 40.6945 9.7828 41.2569C6.20306 42.4942 4.41319 43.1128 4.41319 43.1128C4.41319 43.1128 2.91814 42.0774 -0.0719531 40.0064C-0.677839 36.3482 -0.677839 34.4206 -0.0719531 34.2237C0.836875 33.9284 2.94526 30.8833 3.51514 30.5604C3.89506 30.3452 5.41303 29.8708 8.06905 29.1373Z" fill="white" fill-opacity="0.2"/>
</g>
<path d="M25.0585 8.57937L21.4881 16.9704C21.0148 18.0826 19.7374 18.601 18.6349 18.1283C18.203 17.9431 17.8429 17.6215 17.6086 17.2119L12.1944 7.74646C11.5964 6.70093 11.9548 5.362 12.9949 4.75587C13.4023 4.51841 13.8748 4.4202 14.3414 4.47599L23.326 5.55042C24.5169 5.69283 25.3642 6.78115 25.2186 7.98125C25.1936 8.18715 25.1397 8.38854 25.0585 8.57937Z" fill="#696CFF"/>
<path d="M25.0585 8.57937L21.4881 16.9704C21.0148 18.0826 19.7374 18.601 18.6349 18.1283C18.203 17.9431 17.8429 17.6215 17.6086 17.2119L12.1944 7.74646C11.5964 6.70093 11.9548 5.362 12.9949 4.75587C13.4023 4.51841 13.8748 4.4202 14.3414 4.47599L23.326 5.55042C24.5169 5.69283 25.3642 6.78115 25.2186 7.98125C25.1936 8.18715 25.1397 8.38854 25.0585 8.57937Z" fill="white" fill-opacity="0.2"/>
</svg>
